<?xml version="1.0" standalone="no"?>
<svg xmlns="http://www.w3.org/2000/svg" viewBox="0 0 136.344 29" width="136.344" height="29"><g fill="#f29b18" color="#f29b18" transform="translate(0, 0) scale(0.453125)"><svg width="64.0" height="64.0" x="0.0" y="0.0" viewBox="0 0 64 64"><g><path d="M36.7,13.8h-9.4L32,22L36.7,13.8z M33.2,15.8L32,18l-1.2-2.2H33.2z"></path><rect x="26.3" y="10.6" width="11.4" height="2"></rect><rect x="24.1" y="7.3" width="15.9" height="2"></rect><rect x="21.8" y="4" width="20.3" height="2"></rect><g><rect x="7.9" y="26.9" width="48.2" height="4.5"></rect><path d="M7.9,60h48.2V36.7H7.9V60z M46.9,50.7c0.6,0,1.2,0.1,1.7,0.4c0.5-0.3,1.1-0.4,1.7-0.4c2,0,3.7,1.6,3.7,3.7    S52.3,58,50.3,58c-0.6,0-1.2-0.1-1.7-0.4c-0.5,0.3-1.1,0.4-1.7,0.4c-2,0-3.7-1.6-3.7-3.7S44.9,50.7,46.9,50.7z M12.2,41.7h29.1v2    H12.2V41.7z M12.2,47.6h22v2h-22V47.6z"></path><rect x="7.9" y="32.4" width="48.2" height="3.3"></rect></g></g></svg></g><line x1="41" y1="1" x2="41" y2="28" stroke="#01427c" stroke-linecap="round"></line><path fill="#01427c" fill-rule="nonzero" d="M12.82 0.07Q14.23 0.07 15.26 0L15.26 0Q15.26 0.58 15.14 1.03L15.14 1.03Q14.45 1.20 14.03 1.85Q13.61 2.50 13.08 3.86L13.08 3.86Q10.70 9.96 8.06 16.34L8.06 16.34Q7.66 16.44 7.13 16.44L7.13 16.44Q4.34 8.93 2.16 3.79L2.16 3.79Q1.61 2.50 1.34 1.98Q1.08 1.46 0.83 1.27Q0.58 1.08 0.12 1.03L0.12 1.03Q0 0.55 0 0L0 0Q0.94 0.07 2.90 0.07L2.90 0.07Q4.44 0.07 5.81 0L5.81 0Q5.81 0.48 5.69 1.03L5.69 1.03Q4.87 1.08 4.52 1.26Q4.18 1.44 4.18 1.90L4.18 1.90Q4.18 2.42 4.73 3.67L4.73 3.67Q6.36 7.54 8.30 12.89L8.30 12.89Q10.39 8.14 11.88 3.96L11.88 3.96Q12.22 3.00 12.22 2.38L12.22 2.38Q12.22 1.78 11.90 1.45Q11.59 1.13 10.90 1.03L10.90 1.03Q10.78 0.58 10.78 0L10.78 0Q11.83 0.07 12.82 0.07L12.82 0.07ZM21.84 9.24Q21.84 10.18 21.53 10.80L21.53 10.80Q18.07 10.80 14.66 10.90L14.66 10.90Q14.66 10.49 14.77 10.02Q14.88 9.55 15.05 9.24L15.05 9.24L21.84 9.24ZM32.21 7.49Q36.91 7.75 36.91 11.57L36.91 11.57Q36.91 13.68 35.48 14.99Q34.06 16.30 31.15 16.30L31.15 16.30Q26.42 16.30 24.62 16.37L24.62 16.37Q24.62 15.67 24.74 15.34L24.74 15.34Q25.42 15.29 25.76 15.10Q26.11 14.90 26.27 14.41Q26.42 13.92 26.42 12.98L26.42 12.98L26.42 3.12Q26.42 1.92 26.08 1.50Q25.73 1.08 24.77 1.03L24.77 1.03Q24.65 0.70 24.65 0L24.65 0Q25.61 0.07 27.14 0.07L27.14 0.07L28.87 0.05Q29.45 0.02 30.58 0.02L30.58 0.02Q32.93 0.02 34.31 0.80Q35.69 1.58 35.69 3.53L35.69 3.53Q35.69 5.09 34.74 6.17Q33.79 7.25 32.21 7.49L32.21 7.49ZM33.24 4.25Q33.24 2.57 32.17 1.82Q31.10 1.08 29.66 1.08L29.66 1.08Q29.14 1.08 28.68 1.20L28.68 1.20L28.68 7.30L29.42 7.30Q33.24 7.30 33.24 4.25L33.24 4.25ZM30.91 15.26Q32.64 15.26 33.49 14.39Q34.34 13.51 34.34 11.90L34.34 11.90Q34.34 8.33 29.23 8.33L29.23 8.33L28.68 8.33L28.68 12.98Q28.68 13.99 28.86 14.46Q29.04 14.93 29.50 15.10Q29.95 15.26 30.91 15.26L30.91 15.26ZM52.30 15.26Q52.42 15.62 52.42 16.34L52.42 16.34Q51.46 16.30 49.94 16.30L49.94 16.30Q48.36 16.30 47.40 16.34L47.40 16.34Q47.40 15.60 47.54 15.26L47.54 15.26Q48.10 15.19 48.32 15.06Q48.55 14.93 48.55 14.66L48.55 14.66Q48.55 14.45 48.31 13.92L48.31 13.92L47.83 12.89Q44.38 12.89 42.38 13.01L42.38 13.01L42.12 13.63Q41.88 14.18 41.88 14.50L41.88 14.50Q41.88 15.17 42.86 15.26L42.86 15.26Q43.01 15.70 43.01 16.34L43.01 16.34Q42.10 16.30 41.02 16.30L41.02 16.30Q40.08 16.30 39.31 16.34L39.31 16.34Q39.31 15.77 39.46 15.26L39.46 15.26Q39.98 15.17 40.27 14.82Q40.56 14.47 41.04 13.42L41.04 13.42L45.17 4.27Q45.62 4.18 46.13 4.18L46.13 4.18L50.54 13.34Q51.07 14.45 51.44 14.83Q51.82 15.22 52.30 15.26L52.30 15.26ZM42.86 11.90L47.35 11.90L45.91 8.88Q45.29 7.61 45.05 6.86L45.05 6.86Q44.86 7.46 44.58 8.05Q44.30 8.64 44.23 8.78L44.23 8.78L42.86 11.90ZM66.96 4.30Q67.87 4.30 68.98 4.25L68.98 4.25Q68.98 4.97 68.88 5.33L68.88 5.33Q68.38 5.38 68.11 5.59Q67.85 5.81 67.74 6.32Q67.63 6.84 67.63 7.85L67.63 7.85L67.63 16.32Q67.32 16.46 66.65 16.46L66.65 16.46L58.03 6.94L58.03 12.70Q58.03 13.73 58.16 14.26Q58.30 14.78 58.61 15Q58.92 15.22 59.52 15.26L59.52 15.26Q59.64 15.65 59.64 16.34L59.64 16.34Q58.34 16.30 57.50 16.30L57.50 16.30Q56.38 16.30 55.32 16.34L55.32 16.34Q55.32 15.65 55.44 15.26L55.44 15.26Q56.04 15.22 56.34 15Q56.64 14.78 56.77 14.26Q56.90 13.73 56.90 12.70L56.90 12.70L56.90 5.69L56.88 5.66Q56.71 5.50 56.45 5.44Q56.18 5.38 55.44 5.33L55.44 5.33Q55.32 4.90 55.32 4.25L55.32 4.25Q56.18 4.30 57 4.30L57 4.30Q57.74 4.30 58.51 4.25L58.51 4.25L66.50 13.20L66.50 7.85Q66.50 6.84 66.37 6.32Q66.24 5.81 65.93 5.59Q65.62 5.38 64.99 5.33L64.99 5.33Q64.90 4.78 64.90 4.25L64.90 4.25Q66.10 4.30 66.96 4.30L66.96 4.30ZM82.06 13.34Q82.75 14.11 83.64 14.66Q84.53 15.22 85.34 15.26L85.34 15.26Q85.34 15.94 85.22 16.30L85.22 16.30Q83.16 16.30 81.91 16.44L81.91 16.44Q81.02 15.31 79.44 13.63Q77.86 11.95 76.39 10.58L76.39 10.58L76.39 13.49Q76.39 14.52 76.69 14.87Q76.99 15.22 77.86 15.26L77.86 15.26Q77.95 15.62 77.95 16.34L77.95 16.34Q76.32 16.30 75.31 16.30L75.31 16.30Q74.11 16.30 72.62 16.34L72.62 16.34Q72.62 15.60 72.74 15.26L72.74 15.26Q73.34 15.22 73.64 15.07Q73.94 14.93 74.06 14.57Q74.18 14.21 74.18 13.49L74.18 13.49L74.18 7.08Q74.18 6.38 74.06 6.02Q73.94 5.66 73.64 5.52Q73.34 5.38 72.74 5.33L72.74 5.33Q72.62 4.97 72.62 4.25L72.62 4.25Q74.16 4.30 75.31 4.30L75.31 4.30Q76.27 4.30 77.95 4.25L77.95 4.25Q77.95 4.99 77.86 5.33L77.86 5.33Q76.99 5.38 76.69 5.71Q76.39 6.05 76.39 7.08L76.39 7.08L76.39 10.01L80.14 6.96Q81.14 6.14 81.14 5.74L81.14 5.74Q81.14 5.38 80.42 5.33L80.42 5.33Q80.30 4.94 80.30 4.25L80.30 4.25Q81.26 4.30 82.51 4.30L82.51 4.30Q83.64 4.30 84.79 4.25L84.79 4.25Q84.79 4.92 84.65 5.33L84.65 5.33Q83.93 5.35 83.29 5.66Q82.66 5.98 81.62 6.74L81.62 6.74L78.38 9.50Q79.94 10.99 82.06 13.34L82.06 13.34Z" transform="translate(51, 6.269)"></path></svg>